<svg xmlns="http://www.w3.org/2000/svg" id="like" width="15.115" height="15.549" viewBox="0 0 15.115 15.549">
    <defs>
        <style>
            .cls-1{fill:#a9a8b4}
        </style>
    </defs>
    <path id="Path_7275" d="M21.337 10.571a1.932 1.932 0 0 0 .452-1.291 1.983 1.983 0 0 0-.423-1.119 1.738 1.738 0 0 0-.413-2 3.591 3.591 0 0 0-2.611-.624 10.2 10.2 0 0 0-1.6.2c-.163.029-.335.065-.511.1a5.673 5.673 0 0 1 .406-1.889A3.476 3.476 0 0 0 16.55.8 2.067 2.067 0 0 0 14.9 0a.817.817 0 0 0-.628.286 2.187 2.187 0 0 0-.273 1.551c-.429 1.151-1.632 3.974-2.65 4.757a.348.348 0 0 0-.052.046 3.493 3.493 0 0 0-.637.956 1.342 1.342 0 0 0-.644-.163H8.028a1.354 1.354 0 0 0-1.353 1.353v5.284a1.354 1.354 0 0 0 1.353 1.353h1.984a1.35 1.35 0 0 0 .78-.247l.764.091a32.739 32.739 0 0 0 4.334.237c.387.029.751.046 1.089.046a7.3 7.3 0 0 0 1.512-.137 2.828 2.828 0 0 0 2.019-1.255 1.99 1.99 0 0 0 .221-1.245 2.074 2.074 0 0 0 .738-1.688 2.2 2.2 0 0 0-.132-.654zM8.028 14.545a.475.475 0 0 1-.475-.475V8.783a.475.475 0 0 1 .475-.475h1.983a.475.475 0 0 1 .475.475v5.284a.475.475 0 0 1-.475.475H8.028zM20.5 10.191a.437.437 0 0 0-.059.53 1.353 1.353 0 0 1 .15.543 1.3 1.3 0 0 1-.611 1.125.443.443 0 0 0-.15.5 1.148 1.148 0 0 1-.088.839 2.034 2.034 0 0 1-1.437.826 8.566 8.566 0 0 1-2.37.072h-.046a32.1 32.1 0 0 1-4.227-.231l-.328-.039a1.378 1.378 0 0 0 .029-.286V8.783a1.375 1.375 0 0 0-.062-.4 2.718 2.718 0 0 1 .6-1.115c1.46-1.158 2.887-5.063 2.949-5.232a.412.412 0 0 0 .02-.218 2.032 2.032 0 0 1 .042-.943 1.167 1.167 0 0 1 .917.439 2.77 2.77 0 0 1-.029 2.36c-.546 1.655-.592 2.527-.159 2.91a.709.709 0 0 0 .709.127c.2-.046.387-.085.566-.114l.042-.01c1-.218 2.787-.351 3.408.215a.935.935 0 0 1 .111 1.187.435.435 0 0 0 .078.566 1.232 1.232 0 0 1 .361.758 1.208 1.208 0 0 1-.416.878z" class="cls-1" data-name="Path 7275" transform="translate(-6.675)"/>
</svg>
